#!OML:ASF X:\für Bonn\!DataBase\2005_08_12_Daniel\c3d\Daniel.ASF
:FULLY-SPECIFIED
:DEGREES
108
root 1.8213 17.4929 17.0755 172.771 -247.865 539.293
lowerback 5.0621 -4.9643 0.423363
upperback 1.2592 -6.65105 -6.3801
thorax -2.343 -3.32137 -6.37178
lowerneck 10.1396 -11.0885 -7.06036
upperneck 9.10364 -15.786 8.48283
head 2.34805 -7.99807 3.65679
rclavicle -2.01766e-014 -8.11041e-014
rhumerus 24.493 -15.2528 -31.0503
rradius 25.6798
rwrist 7.05648
rhand -7.89957 11.496
rfingers 7.12502
rthumb 18.0055 -17.6906
lclavicle -2.01766e-014 -8.11041e-014
lhumerus -57.1539 58.5868 29.543
lradius 13.5247
lwrist -65.6808
lhand -10.5511 -6.78947
lfingers 7.12502
lthumb 15.4528 22.6129
rfemur 1.19714 16.2138 16.1567
rtibia 22.4589
rfoot -20.6376 -12.4599
rtoes -10.942
lfemur -0.400161 -7.84287 -7.75459
ltibia 39.5015
lfoot -16.1873 -6.57188
ltoes -18.1091
109
root 1.80791 17.494 17.1486 172.934 -248.248 539.371
lowerback 5.06126 -5.01268 0.590036
upperback 1.24283 -6.7098 -6.39519
thorax -2.38762 -3.35385 -6.47525
lowerneck 10.0993 -11.1189 -7.05068
upperneck 9.06643 -15.8156 8.39307
head 2.33833 -8.01273 3.62677
rclavicle 1.09928e-013 -4.77083e-015
rhumerus 24.4397 -15.0598 -30.4589
rradius 25.69
rwrist 7.07576
rhand -6.80318 11.4526
rfingers 7.12502
rthumb 19.0601 -17.6335
lclavicle 1.09928e-013 -4.77083e-015
lhumerus -60.0509 59.2794 26.3334
lradius 13.4436
lwrist -68.0441
lhand -10.4145 -6.77416
lfingers 7.12502
lthumb 15.5845 22.618
rfemur 1.28832 16.6226 16.5483
rtibia 22.5598
rfoot -21.2061 -13.1084
rtoes -10.7476
lfemur -0.613312 -7.13196 -7.77816
ltibia 39.6469
lfoot -16.2192 -5.48405
ltoes -18.2348
110
root 1.79505 17.4938 17.2195 173.046 -248.608 539.385
lowerback 5.03843 -5.07011 0.762849
upperback 1.23792 -6.77916 -6.38751
thorax -2.40759 -3.39135 -6.55949
lowerneck 10.0344 -11.1294 -7.0513
upperneck 9.03674 -15.8192 8.30526
head 2.33333 -8.01402 3.59771
rclavicle 7.58364e-014 -6.36111e-015
rhumerus 24.4095 -14.7137 -29.777
rradius 25.7135
rwrist 6.95898
rhand -5.74783 11.386
rfingers 7.12502
rthumb 20.0748 -17.5969
lclavicle 7.58364e-014 -6.36111e-015
lhumerus -62.8015 59.8024 23.3438
lradius 13.4005
lwrist -70.1259
lhand -10.3857 -6.68928
lfingers 7.12502
lthumb 15.6122 22.7007
rfemur 1.34356 17.0179 16.9534
rtibia 22.6819
rfoot -21.7607 -13.7267
rtoes -10.6144
lfemur -0.805736 -6.46445 -7.7805
ltibia 39.7372
lfoot -16.2459 -4.40569
ltoes -18.108
111
root 1.78275 17.4945 17.2883 173.242 -248.948 539.499
lowerback 5.02631 -5.13037 0.87952
upperback 1.22581 -6.85541 -6.37422
thorax -2.43494 -3.43183 -6.60423
lowerneck 9.98249 -11.135 -7.04445
upperneck 8.99917 -15.8135 8.18602
head 2.32034 -8.01117 3.55986
rclavicle 3.03147e-014 2.06736e-014
rhumerus 24.4171 -14.2284 -29.0254
rradius 25.7295
rwrist 6.67406
rhand -4.69571 11.3069
rfingers 7.12502
rthumb 21.0857 -17.5667
lclavicle 3.03147e-014 2.06736e-014
lhumerus -65.5591 60.2181 20.3808
lradius 13.3813
lwrist -72.0018
lhand -10.4012 -6.64558
lfingers 7.12502
lthumb 15.5973 22.7456
rfemur 1.40253 17.3696 17.3104
rtibia 22.8095
rfoot -22.2904 -14.3115
rtoes -10.4757
lfemur -0.950972 -5.84122 -7.83141
ltibia 39.7949
lfoot -16.3296 -3.35692
ltoes -17.9992
112
root 1.77092 17.4956 17.3538 173.426 -249.274 539.615
lowerback 5.02732 -5.19295 0.991807
upperback 1.21807 -6.935 -6.35104
thorax -2.46396 -3.47387 -6.63465
lowerneck 9.95504 -11.1283 -7.03462
upperneck 8.93625 -15.7905 8.06598
head 2.29427 -8.00042 3.52431
rclavicle -4.17448e-014 1.43125e-014
rhumerus 24.4635 -13.7594 -28.2978
rradius 25.7264
rwrist 6.46108
rhand -3.66474 11.2951
rfingers 7.12502
rthumb 22.0759 -17.4648
lclavicle -4.17448e-014 1.43125e-014
lhumerus -68.0118 60.4724 17.81
lradius 13.3977
lwrist -73.5676
lhand -10.4807 -6.47552
lfingers 7.12502
lthumb 15.5207 22.9216
rfemur 1.46422 17.7041 17.6594
rtibia 22.9292
rfoot -22.7928 -14.8807
rtoes -10.4059
lfemur -1.05976 -5.24692 -7.88757
ltibia 39.8384
lfoot -16.424 -2.31868
ltoes -17.7277
113
root 1.7592 17.4962 17.4178 173.629 -249.579 539.736
lowerback 5.01869 -5.25768 1.07275
upperback 1.1976 -7.0192 -6.30636
thorax -2.49504 -3.51813 -6.62435
lowerneck 9.91326 -11.1185 -7.03536
upperneck 8.91747 -15.7639 7.91507
head 2.28193 -7.98748 3.47912
rclavicle 7.07673e-014 1.90833e-014
rhumerus 24.5897 -13.4167 -27.6976
rradius 25.7112
rwrist 6.43678
rhand -2.61718 11.2804
rfingers 7.12502
rthumb 23.0813 -17.3572
lclavicle 7.07673e-014 1.90833e-014
lhumerus -70.1669 60.5883 15.6084
lradius 13.4104
lwrist -74.7187
lhand -10.5752 -6.19955
lfingers 7.12502
lthumb 15.4297 23.2046
rfemur 1.50063 18.0235 17.9956
rtibia 23.0477
rfoot -23.2744 -15.4544
rtoes -10.335
lfemur -1.17857 -4.6447 -7.93966
ltibia 39.8778
lfoot -16.5364 -1.28805
ltoes -17.6836
114
root 1.74741 17.4958 17.4788 173.84 -249.876 539.89
lowerback 5.03155 -5.32193 1.1473
upperback 1.18366 -7.1031 -6.26679
thorax -2.5313 -3.56205 -6.61419
lowerneck 9.8569 -11.1023 -7.05367
upperneck 8.7719 -15.6955 7.48073
head 2.47055 -7.97482 3.69302
rclavicle -8.24956e-014 -6.36111e-015
rhumerus 24.7789 -13.2369 -27.2526
rradius 25.661
rwrist 6.60766
rhand -1.5795 11.3234
rfingers 7.12502
rthumb 24.0767 -17.1862
lclavicle -8.24956e-014 -6.36111e-015
lhumerus -72.1852 60.6471 13.5622
lradius 13.4517
lwrist -75.6922
lhand -10.6561 -5.93895
lfingers 7.12502
lthumb 15.3518 23.4712
rfemur 1.57999 18.4873 18.3599
rtibia 23.1649
rfoot -23.8291 -16.1398
rtoes -10.28
lfemur -1.26529 -4.06448 -8.00588
ltibia 39.913
lfoot -16.6558 -0.280731
ltoes -17.6583
115
root 1.73636 17.4951 17.5376 174.084 -250.154 540.059
lowerback 5.01521 -5.38519 1.21774
upperback 1.16869 -7.1853 -6.22765
thorax -2.55174 -3.60492 -6.60492
lowerneck 9.84915 -11.0775 -7.04456
upperneck 8.71942 -15.6503 7.36408
head 2.43693 -7.95243 3.65404
rclavicle 5.68524e-014 3.49861e-014
rhumerus 25.027 -13.0735 -26.8511
rradius 25.5751
rwrist 6.75771
rhand -0.528844 11.3635
rfingers 7.12502
rthumb 25.0837 -17.0091
lclavicle 5.68524e-014 3.49861e-014
lhumerus -73.8207 60.6002 11.9522
lradius 13.4988
lwrist -76.2702
lhand -10.7485 -5.64783
lfingers 7.12502
lthumb 15.2627 23.7691
rfemur 1.64524 19.1316 18.7517
rtibia 23.2955
rfoot -24.4769 -16.9595
rtoes -10.1162
lfemur -1.35873 -3.47462 -8.07281
ltibia 39.943
lfoot -16.7886 0.703481
ltoes -18.0002
